# xmcd
#
# Track frame offsets:
#	183
#	13173
#	24703
#	36285
#	46695
#	59993
#	71773
#	90975
#	104988
#	115600
#	127640
#	138258
#	153933
#	165808
#	177530
#	188078
#	197515
#	209470
#	224025
#	235715
#
# Disc length: 3261
#
# Revision: 2
# Processed by: cddbd v1.5.1PL0 Copyright (c) Steve Scherf et al.
# Submitted via: EasyCDDAExtractor 5.0.6
# Normalized: r1:DSETVAR1
#
DISCID=190cbb14
DTITLE=Various Artist - Big Country Classics Vol. 8
DYEAR=1988
DGENRE=Country
TTITLE0=Jim Reeves - Distant Drums
TTITLE1=Marty Robbins - Ribbons Of Darkness
TTITLE2=Conway Twitty - I Love You More Today
TTITLE3=Ferlin Husky - Wings Of Love
TTITLE4=Hank Locklin - Please Help Me I'm Falling
TTITLE5=Porter Wagoner - Misery Loves Company
TTITLE6=Bobby Gentry - Ode To Billy Joe
TTITLE7=Glen Campbell - Wichita Lineman
TTITLE8=Buck Owens - Act Naturally
TTITLE9=Johnny Cash - Ring Of Fire
TTITLE10=Connie Smith - Once A Day
TTITLE11=Bill Anderson - Mama Sang A Song
TTITLE12=Tammy Wynette - I Don't Wanna Play House
TTITLE13=Ray Price - Crazy Arms
TTITLE14=David Houston - Baby Baby (I Know You're A Lady)
TTITLE15=Flatt and Scruggs - The Ballad Of Jed Clampett
TTITLE16=Eddy Arnold - Make The World Go Away
TTITLE17=Jeannie C. Riley - Harper Valley P.T.A.
TTITLE18=Jack Greene - There Goes My Everything
TTITLE19=Buck Owens - Love's Gonna Live Here
EXTD=Trax Music Ltd. TRXCD 5009\n20 Number One Hits Of The 60's
EXTT0=
EXTT1=
EXTT2=
EXTT3=
EXTT4=
EXTT5=
EXTT6=
EXTT7=
EXTT8=
EXTT9=
EXTT10=
EXTT11=
EXTT12=
EXTT13=
EXTT14=
EXTT15=
EXTT16=
EXTT17=
EXTT18=
EXTT19=
PLAYORDER=
